<svg width="1024" height="1024" viewBox="0 0 100 100" xmlns="http://www.w3.org/2000/svg">
  <defs>
    <linearGradient id="fridgelyBg" gradientUnits="userSpaceOnUse" x1="20" y1="0" x2="80" y2="100">
      <stop offset="0" stop-color="#5ec47f" />
      <stop offset="0.5" stop-color="#3fb6a0" />
      <stop offset="1" stop-color="#2f8fe6" />
    </linearGradient>
  </defs>

  <!-- rounded app-icon background -->
  <rect x="0" y="0" width="100" height="100" rx="24" fill="url(#fridgelyBg)" />

  <!-- location pin outline -->
  <path
    d="M50 12 C33 12 20 25 20 41 C20 60 41 70 50 87 C59 70 80 60 80 41 C80 25 67 12 50 12 Z"
    fill="none" stroke="#ffffff" stroke-width="6.4" stroke-linejoin="round" />

  <!-- shopping cart (left) -->
  <g transform="translate(22.5 31) scale(1.28)" fill="none" stroke="#ffffff"
     stroke-width="3.9" stroke-linecap="round" stroke-linejoin="round">
    <path d="M1 1h3.2l2.4 12.2a1.7 1.7 0 0 0 1.7 1.4h8.6a1.7 1.7 0 0 0 1.7-1.4L20.4 5H5.2" />
    <path d="M8 9h9.5M8.7 12h8.2" />
    <circle cx="8.4" cy="19.4" r="1.5" fill="#ffffff" stroke="none" />
    <circle cx="16.8" cy="19.4" r="1.5" fill="#ffffff" stroke="none" />
  </g>

  <!-- fridge (right) -->
  <g>
    <rect x="55" y="34" width="14.5" height="31" rx="3.4" fill="#ffffff" />
    <rect x="55" y="47" width="14.5" height="1.8" fill="url(#fridgelyBg)" />
    <rect x="58" y="38" width="2" height="6" rx="1" fill="url(#fridgelyBg)" />
    <rect x="58" y="51.5" width="2" height="8" rx="1" fill="url(#fridgelyBg)" />
  </g>
</svg>
